<?xml version="1.0" encoding="UTF-8" standalone="no"?>
<!-- Created with Inkscape (http://www.inkscape.org/) -->

<svg
   xmlns:dc="http://purl.org/dc/elements/1.1/"
   xmlns:cc="http://creativecommons.org/ns#"
   xmlns:rdf="http://www.w3.org/1999/02/22-rdf-syntax-ns#"
   xmlns:svg="http://www.w3.org/2000/svg"
   xmlns="http://www.w3.org/2000/svg"
   xmlns:sodipodi="http://sodipodi.sourceforge.net/DTD/sodipodi-0.dtd"
   xmlns:inkscape="http://www.inkscape.org/namespaces/inkscape"
   version="1.1"
   id="svg815"
   width="722.38397"
   height="452.72763"
   viewBox="0 0 722.38397 452.72763"
   sodipodi:docname="logo.svg"
   inkscape:version="0.92.4 (5da689c313, 2019-01-14)">
  <metadata
     id="metadata821">
    <rdf:RDF>
      <cc:Work
         rdf:about="">
        <dc:format>image/svg+xml</dc:format>
        <dc:type
           rdf:resource="http://purl.org/dc/dcmitype/StillImage" />
        <dc:title></dc:title>
      </cc:Work>
    </rdf:RDF>
  </metadata>
  <defs
     id="defs819" />
  <sodipodi:namedview
     pagecolor="#ffffff"
     bordercolor="#666666"
     borderopacity="1"
     objecttolerance="10"
     gridtolerance="10"
     guidetolerance="10"
     inkscape:pageopacity="0"
     inkscape:pageshadow="2"
     inkscape:window-width="1366"
     inkscape:window-height="713"
     id="namedview817"
     showgrid="false"
     fit-margin-top="0"
     fit-margin-left="0"
     fit-margin-right="0"
     fit-margin-bottom="0"
     inkscape:zoom="0.56325301"
     inkscape:cx="393.60851"
     inkscape:cy="75.111713"
     inkscape:window-x="-8"
     inkscape:window-y="-8"
     inkscape:window-maximized="1"
     inkscape:current-layer="g825" />
  <g
     id="g825"
     transform="translate(-32.851384,-63.571247)">
    <path
       style="fill:#fb3818;fill-opacity:1"
       d="m 395.35138,513.69418 c -4.4,-1.55133 -9.44128,-3.57976 -11.20285,-4.50763 -6.00147,-3.16115 -14.5987,-18.72572 -18.32972,-33.18444 -2.40882,-9.33482 -4.25294,-28.86697 -3.36059,-35.59387 l 0.62,-4.67377 -25.86342,-0.58436 c -29.7704,-0.67263 -93.68608,-3.37961 -109.86342,-4.65297 -6.05,-0.47621 -15.13024,-1.15116 -20.17831,-1.4999 l -9.17831,-0.63406 -0.70279,4.81947 c -1.43228,9.82195 -7.66871,26.05685 -12.89992,33.58154 -6.9324,9.97171 -20.02801,18.92694 -32.54067,22.25244 -6.51234,1.73079 -21.73795,1.93336 -29.20078,0.38851 C 109.84133,486.75353 95.946622,477.37958 89.205685,466.8418 81.813102,455.28533 76.851384,437.91443 76.851384,423.58958 v -7.99684 l -3.75,-0.6048 c -15.810073,-2.54981 -32.367293,-7.36794 -38,-11.05795 -1.714073,-1.1229 -2.25,-2.4289 -2.25,-5.48305 0,-8.44332 5.956432,-16.70905 15.140709,-21.01073 L 53,375.09063 52.347917,369.04637 c -0.358646,-3.32434 -1.518487,-11.66926 -2.577425,-18.54426 -1.058939,-6.875 -2.837886,-18.575 -3.953218,-26 -1.115331,-7.425 -2.488357,-14.32051 -3.05117,-15.32336 -5.687014,-10.13341 -7.187889,-16.35399 -5.881895,-24.37832 2.37328,-14.58199 11.131371,-21.83332 36.967175,-30.60726 24.362172,-8.27349 39.185626,-10.92315 63.183846,-11.29397 l 18.68386,-0.28871 4.31614,-3.13652 c 10.08775,-7.33071 28.98818,-15.93219 47.31615,-21.53333 4.95,-1.51275 9.09986,-2.81763 9.22191,-2.89973 0.12205,-0.0821 1.54261,-5.97443 3.15681,-13.09404 9.00744,-39.72843 23.10662,-66.00822 44.75838,-83.42616 16.3364,-13.14196 38.12814,-20.418108 67.3629,-22.492123 4.675,-0.331661 10.4125,-0.838371 12.75,-1.126021 l 4.25,-0.523002 V 88.77275 c 0,-8.841973 1.91488,-18.122441 3.84624,-18.640852 10.17989,-2.732456 32.28058,-4.653879 60.65376,-5.273208 22.97817,-0.501566 28.0427,-0.344805 34,1.052396 8.81567,2.06759 23.26127,9.186606 30.71788,15.138256 l 5.71788,4.563844 41.28212,0.297513 c 39.7894,0.286755 50.26455,0.842746 78.16678,4.14887 34.05422,4.035071 52.48093,11.327241 68.95207,27.287011 21.41925,20.75428 30.70478,49.53321 30.94395,95.90553 l 0.10959,21.25 3.05487,0.0815 c 1.68017,0.0448 8.6222,0.40094 15.42672,0.79138 14.46625,0.83007 14.86809,1.09609 18.1234,11.99753 2.41104,8.07415 3.60519,20.49721 5.16441,53.72692 1.11435,23.74879 1.31404,25.40268 3.06717,25.40268 2.61858,0 4.77316,5.68105 4.77316,12.58553 0,5.22952 -0.28878,5.93854 -3.88235,9.53212 -3.48689,3.48688 -4.39783,3.88235 -8.94284,3.88235 -3.4257,0 -6.27172,0.71465 -8.80987,2.21219 -2.93282,1.7304 -5.74847,2.29962 -12.9285,2.61365 l -9.17911,0.40146 -0.69719,9.63635 c -1.69412,23.41559 -10.50655,54.26571 -17.23865,60.34821 -7.26304,6.56221 -28.97489,6.4182 -42.82149,-0.28403 -5.29337,-2.56218 -10.48189,-14.26902 -12.59932,-28.42783 -1.88646,-12.6143 -0.88203,-11.47238 -8.63966,-9.82235 -48.36665,10.28745 -101.76299,20.94096 -114.76102,22.89686 -5.5,0.82761 -12.25,1.27853 -15,1.00202 -2.75,-0.2765 -7.74585,-0.75914 -11.10189,-1.07253 l -6.10189,-0.5698 -0.56919,14.2829 c -1.31163,32.91303 -12.68408,67.71705 -26.77362,81.93745 -3.48436,3.51673 -7.08662,6.11526 -9.52796,6.87312 -2.2202,0.6892 -11.74482,1.38503 -21.92545,1.60178 -17.66139,0.37601 -18.15049,0.33015 -26,-2.43738 z M 443.72657,480.374 c 5.42895,-3.32734 9.10028,-15.97965 5.87722,-20.2544 -1.25168,-1.66011 -1.8424,-1.7429 -5.00013,-0.70075 -6.86094,2.26432 -13.69103,-2.97931 -17.72465,-13.60766 -5.62509,-14.82176 -1.85673,-39.02221 7.06562,-45.37548 1.63338,-1.16307 5.46178,-2.45284 8.50756,-2.86616 7.71574,-1.04705 10.89919,-4.27964 10.89919,-11.06744 0,-4.08147 -0.4886,-5.44315 -2.77273,-7.72727 -3.72957,-3.72957 -10.65668,-3.8929 -15.59921,-0.36781 -10.21463,7.28524 -20.12806,34.42056 -20.12806,55.09508 0,14.86105 6.02247,36.93205 12.08423,44.28602 4.5613,5.53365 10.49125,6.44689 16.79096,2.58587 z m 4.04808,-26.46078 c 3.94322,-3.318 3.88506,-4.41111 -0.23471,-4.41111 -6.7858,0 -10.68004,-6.81185 -11.43373,-20 -0.74904,-13.10678 2.25661,-20.86473 10.04582,-25.92953 2.64953,-1.72281 3.36741,-2.66374 2.46788,-3.23469 -4.61145,-2.92696 -14.42329,1.74683 -17.63458,8.40009 -4.86551,10.08052 -5.27955,24.97937 -1.00462,36.15046 4.24975,11.10528 11.15765,14.60885 17.79394,9.02478 z m -63.15928,-24.6954 c 9.96417,-2.91897 18.44359,-9.28195 22.21143,-16.66752 l 2.03742,-3.99367 -2.65592,-1.74022 c -2.0984,-1.37493 -6.03555,-1.8951 -18.75641,-2.47803 -37.73263,-1.72909 -107.72323,-5.14454 -140.10051,-6.83671 -10.45,-0.54616 -32.725,-1.67715 -49.5,-2.51332 -16.775,-0.83617 -37.475,-1.94765 -46,-2.46995 -72.918119,-4.46747 -73.375654,-4.48213 -80.414519,-2.5768 -8.033867,2.17467 -11.585477,5.7008 -11.585477,11.50238 0,5.52927 2.844922,8.62043 8.711513,9.46551 26.791019,3.85923 69.834463,8.59683 105.038483,11.56113 6.7375,0.56732 17.5375,1.47497 24,2.017 27.3328,2.29248 68.80994,4.42985 124.25,6.40274 4.675,0.16636 19.525,0.20507 33,0.086 18.61504,-0.16448 25.76442,-0.58689 29.76399,-1.75855 z M 685.8031,405.52795 c 2.65365,-1.42019 5.78447,-7.21908 7.52587,-13.93937 2.05799,-7.94202 1.88281,-9.28726 -0.64229,-4.93241 -2.02769,3.49701 -5.36493,5.84594 -8.30563,5.84594 -1.9393,0 -7.52967,-4.8919 -7.52967,-6.58889 0,-1.72246 -3.15011,-1.861 -4.8,-0.21111 -2.80834,2.80834 -0.39089,11.4639 4.69501,16.81029 3.88047,4.07922 5.84623,4.73375 9.05671,3.01555 z M 250.85138,393.6314 c 0,-0.47889 0.74679,-7.56639 1.65953,-15.75 3.02053,-27.08192 2.22313,-61.25695 -2.31879,-99.37929 -2.1028,-17.64969 -2.87556,-19.46232 -9.55635,-22.41575 -9.35478,-4.13554 -19.39242,-5.58425 -38.69135,-5.58425 -18.77675,0 -20.09304,0.31215 -20.09304,4.76486 v 2.36487 l 25.75,-0.31487 c 24.99172,-0.30559 25.87219,-0.24952 29.89923,1.90405 2.28207,1.22041 5.17497,3.8786 6.42865,5.90711 2.13707,3.45785 2.32923,5.19287 3.07677,27.78108 0.43854,13.2511 1.24002,35.7929 1.78107,50.0929 1.26719,33.49235 0.18497,39.31783 -8.09395,43.56868 -5.87832,3.01825 -10.4595,3.25928 -36.08937,1.89883 -32.71421,-1.7365 -31.14731,-1.74336 -31.52292,0.13816 -0.2806,1.40564 2.39486,1.75867 21.47499,2.83372 11.98754,0.67542 27.87053,1.57437 35.29553,1.99767 19.88008,1.13335 21,1.1436 21,0.19223 z m 436.21154,-4.67416 c 0.29968,-0.29968 -0.70606,-1.7958 -2.23497,-3.32471 -2.26278,-2.26279 -2.91383,-4.03103 -3.50021,-9.50658 -1.18819,-11.09512 1.7789,-26.28837 5.66549,-29.01064 2.90186,-2.03254 0.37385,-3.18112 -2.64623,-1.20229 -4.81299,3.1536 -7.73925,20.62398 -5.5557,33.16868 0.66251,3.80622 1.91681,7.70791 2.78731,8.67041 1.53304,1.69504 4.37082,2.31862 5.48431,1.20513 z m 57.52716,-40.08246 c 5.50049,-1.47426 8.38796,-13.24601 4.2613,-17.37267 -2.9723,-2.9723 -5.78658,-2.44871 -10.11765,1.88235 -4.8117,4.81171 -5.329,9.7619 -1.4278,13.6631 2.56475,2.56476 3.58112,2.81971 7.28415,1.82722 z M 356.23536,321.27979 c 5.58761,-1.65934 12.63075,-8.8951 14.87097,-15.27768 4.96496,-14.14563 -1.27344,-30.02038 -13.37714,-34.04059 -9.77872,-3.24796 -21.1548,0.40231 -26.11124,8.37838 l -2.07414,3.33779 4.5787,-3.22737 c 8.18483,-5.7692 18.368,-5.10908 25.10446,1.62738 8.21933,8.21933 8.63435,22.3797 0.92006,31.39211 -3.84978,4.4976 -7.27994,6.59071 -13.01315,7.94072 l -3.7825,0.89068 4.38398,0.10045 c 2.41119,0.0553 6.23619,-0.4496 8.5,-1.12187 z m -4.64652,-4.74513 c 8.2947,-3.76526 12.70758,-14.82109 9.80816,-24.57294 -2.23463,-7.51593 -8.73349,-12.45961 -16.37912,-12.45961 -4.70874,0 -11.0333,3.91658 -13.71562,8.4936 -6.40101,10.9225 -3.21918,23.98214 6.97052,28.61007 5.1712,2.34864 8.01892,2.33343 13.31606,-0.0711 z M 74.375502,308.34679 c 12.811025,-11.24823 10.524563,-34.37385 -4.083988,-41.30607 -5.530506,-2.62439 -11.44013,-1.58965 -11.44013,2.0031 0,0.62794 1.776368,1.67393 3.947484,2.32441 4.573767,1.37033 9.746056,6.15617 11.695372,10.82154 3.2102,7.68309 0.799505,19.88523 -4.980117,25.2077 -1.430604,1.31745 -2.36341,2.77995 -2.072902,3.25 1.003205,1.62322 3.353238,0.84352 6.934281,-2.30068 z m -8.185532,-2.15377 c 4.663882,-3.55731 7.054787,-9.93381 6.451678,-17.20651 -1.254347,-15.12577 -17.59159,-20.82825 -27.144848,-9.47485 -4.939338,5.87007 -5.860655,16.43176 -2.003037,22.96219 4.297902,7.27577 15.604207,9.12851 22.696207,3.71917 z m 576.66141,-90.06639 c 2.31956,-1.06209 2.52193,-1.7214 2.80381,-9.13461 0.51635,-13.5797 -6.03577,-68.51538 -8.92915,-74.86566 -2.03936,-4.47591 -2.66773,-4.5954 -32.53282,-6.18649 l -12.15816,-0.64773 -1.64048,2.50369 c -1.50803,2.30154 -1.51631,3.42016 -0.10255,13.85498 0.84586,6.24322 2.01558,16.5263 2.59938,22.8513 0.5838,6.325 1.89898,20.59133 2.92262,31.70295 1.02364,11.11163 2.12424,20.62862 2.44577,21.14888 0.82907,1.34145 41.42151,0.22421 44.59158,-1.22731 z m -62.09119,-1.07736 c 5.65402,-2.92381 6.01775,-7.44061 3.14443,-39.04716 -0.55,-6.05 -1.4394,-17.525 -1.97644,-25.5 -1.20139,-17.84036 -2.47509,-22.0508 -7.16749,-23.69356 -7.3338,-2.56747 -36.69666,-1.36973 -45.06157,1.83812 -4.07987,1.56458 -7.99449,11.64591 -14.77487,38.04978 -3.29162,12.81811 -6.894,26.68066 -8.00529,30.80566 -2.59857,9.64572 -2.60383,13.20473 -0.023,15.54038 1.82091,1.6479 4.31006,1.8895 22.75,2.20813 11.38796,0.19678 21.38038,0.50667 22.20538,0.68864 0.825,0.18196 7.03485,0.38305 13.79966,0.44685 8.98813,0.0848 13.05608,-0.27516 15.10915,-1.33684 z m 95.58852,-3.00497 c 11.00974,-1.2994 12.19274,-1.64313 14.37107,-4.17559 2.07118,-2.40789 2.30468,-3.46748 1.83195,-8.31312 -0.86447,-8.86097 -12.93536,-49.66995 -17.09854,-57.8063 -2.98078,-5.82552 -8.92175,-11.60781 -13.61129,-13.24775 -2.91784,-1.02036 -4.14007,-0.96378 -7.25,0.33563 -3.6885,1.54115 -3.74052,1.64066 -3.74052,7.15552 0,3.07594 0.65526,11.31141 1.45613,18.30102 0.80088,6.98962 2.15549,19.6834 3.01025,28.2084 0.85476,8.525 1.81442,17.92288 2.13258,20.88417 0.40856,3.8026 1.27343,6.07913 2.94431,7.75 1.3012,1.30121 2.72378,2.35641 3.16128,2.3449 0.4375,-0.0115 6.19425,-0.6581 12.79278,-1.43688 z m -212.37466,-1.55961 c 5.53977,-1.53878 12.41134,-8.21061 15.75971,-15.3016 4.21321,-8.9225 18.9067,-53.24068 19.69952,-59.41725 0.8397,-6.54183 -0.7649,-10.7563 -4.97275,-13.06089 -6.6256,-3.62876 -112.37767,-2.60766 -187.10915,1.80664 -17.6,1.03961 -33.62558,2.36683 -35.6124,2.94937 -5.34898,1.56834 -11.22793,6.2398 -14.16949,11.25918 -1.42964,2.4395 -6.01481,13.17592 -10.18927,23.85871 -4.17445,10.6828 -8.49917,21.67326 -9.61049,24.42326 -3.80472,9.41496 -3.46417,17.94351 0.8693,21.77031 1.81506,1.60284 0.67575,1.64272 35.21235,-1.23261 28.9537,-2.41052 71.69866,-3.32407 102.378,-2.18804 27.84733,1.03117 55.82644,3.00544 71.622,5.05381 9.27781,1.20315 12.02744,1.21664 16.12267,0.0791 z m -36.90727,-106.637 17.71541,-1.70138 0.67453,-4.498098 c 0.75105,-5.008367 -0.074,-26.477402 -1.08012,-28.10529 -1.01744,-1.64626 -35.93868,-1.30555 -64.66672,0.630923 l -25.6415,1.728417 -0.6085,4.439495 c -0.78876,5.754655 -0.77471,15.27673 0.034,23.013662 l 0.64241,6.146691 27.60755,0.0235 c 18.55495,0.0158 33.41647,-0.53441 45.32294,-1.6779 z m -63.4654,-3.00786 c 0.89286,-0.36028 1.25,-3.623393 1.25,-11.421053 0,-8.931487 -0.26697,-10.916667 -1.46806,-10.916667 -0.80744,0 -2.13942,1.2375 -2.95997,2.75 l -1.49189,2.75 -0.04,-3.75 c -0.0384,-3.597324 0.0968,-3.75 3.32039,-3.75 1.84823,0 5.44823,-0.286166 8,-0.635924 l 4.63953,-0.635924 -0.0304,3.385924 c -0.025,2.784698 -0.2114,3.075183 -1.04969,1.635924 -0.56061,-0.9625 -1.89693,-1.75 -2.9696,-1.75 -1.81464,0 -1.95031,0.759378 -1.95031,10.916667 0,7.79766 0.35714,11.060773 1.25,11.421053 0.6875,0.27741 -0.775,0.50438 -3.25,0.50438 -2.475,0 -3.9375,-0.22697 -3.25,-0.50438 z m 10.30954,-0.31123 c 0.85775,-0.50199 3.33275,-6.560677 5.5,-13.463761 2.16725,-6.903084 4.23104,-12.553687 4.58619,-12.556895 0.35514,-0.0032 2.60514,5.731108 5,12.742926 3.11828,9.129943 4.84615,12.83995 6.08712,13.07002 2.1093,0.39105 5.70077,-3.332524 8.73994,-9.061412 l 2.26043,-4.260964 -2.91705,-4.998202 c -1.60437,-2.749011 -3.90685,-5.44241 -5.11661,-5.98533 -3.43848,-1.543134 -2.62634,-2.290824 2.8962,-2.666359 4.80354,-0.326642 7.42603,0.467563 4.66047,1.411392 -0.93864,0.320338 -0.73951,1.507566 0.78766,4.696061 l 2.04389,4.267337 2.83314,-4.281176 c 2.69409,-4.071046 2.74391,-4.34643 1.01499,-5.610652 -1.60318,-1.172271 -1.23715,-1.329475 3.09547,-1.329475 4.64414,0 4.79664,0.08194 2.78055,1.494069 -1.1732,0.821738 -3.54134,3.782774 -5.26254,6.580081 l -3.12945,5.086011 4.27009,6.919919 c 2.34855,3.805956 4.84156,6.91992 5.54003,6.91992 0.69847,0 1.26994,0.45 1.26994,1 0,0.55 -2.47881,1 -5.50847,1 -5.06082,0 -5.41682,-0.14676 -4.38067,-1.805915 0.89232,-1.42883 0.66537,-2.71239 -1.08692,-6.147161 l -2.21474,-4.341247 -3.02474,4.649934 c -2.48163,3.815 -2.80163,4.918774 -1.78216,6.147159 1.08718,1.30997 0.16311,1.49723 -7.38833,1.49723 -7.96665,0 -8.5474,-0.13469 -7.54577,-1.75 0.77628,-1.251886 0.77919,-2.549963 0.0102,-4.56047 -0.94868,-2.480407 -1.5118,-2.774009 -4.79495,-2.5 -3.25743,0.271861 -3.83832,0.72536 -4.67117,3.646754 -0.73471,2.577145 -0.62816,3.540707 0.46827,4.234686 0.97496,0.61709 0.16691,0.89368 -2.58059,0.88331 -2.8888,-0.0109 -3.56676,-0.26864 -2.44046,-0.92779 z m 11.94046,-10.91168 c 0,-1.834443 -2.74772,-7.330515 -3.24524,-6.491246 -0.28576,0.48204 -0.83324,2.338936 -1.21662,4.126436 -0.6449,3.006851 -0.50407,3.25 1.8824,3.25 1.41871,0 2.57946,-0.398336 2.57946,-0.88519 z m 36,10.88519 c 0,-0.55 0.675,-1 1.5,-1 1.25641,0 1.5,-2.111111 1.5,-13 0,-10.888889 -0.24359,-13 -1.5,-13 -0.825,0 -1.5,-0.45 -1.5,-1 0,-0.55 1.7632,-1 3.91821,-1 2.15502,0 4.63002,-0.273145 5.5,-0.606989 0.86999,-0.333844 1.58179,-0.108844 1.58179,0.5 0,0.608844 -0.62252,1.106989 -1.38337,1.106989 -2.01022,0 -2.26689,2.161937 -1.8105,15.25 0.31999,9.176685 0.71459,11.75 1.8018,11.75 0.76564,0 1.39207,0.45 1.39207,1 0,0.55 -2.475,1 -5.5,1 -3.025,0 -5.5,-0.45 -5.5,-1 z m 35.7722,-2.844454 c 4.25029,-2.114449 11.26934,-5.119436 15.59789,-6.677747 l 7.87009,-2.833294 -3.37009,-2.833523 c -5.18886,-4.362715 -14.46156,-9.841819 -22.76478,-13.451373 -4.13952,-1.799519 -7.61976,-3.178492 -7.73387,-3.064385 -0.11411,0.114108 0.45162,2.681863 1.25716,5.706122 1.69574,6.366289 2.22616,17.825925 1.07609,23.248654 -0.43743,2.0625 -0.53994,3.75 -0.22781,3.75 0.31214,0 4.04503,-1.730004 8.29532,-3.844454 z"
       id="path835"
       inkscape:connector-curvature="0" />
    <path
       style="fill:#292900;fill-opacity:1"
       d="m 403.23536,513.84728 c -3.025,-0.83221 -8.7955,-2.93348 -12.82333,-4.66947 -7.11535,-3.06672 -7.44904,-3.37112 -11.75033,-10.71901 -9.0961,-15.53888 -12.31687,-27.61532 -13.11974,-49.19317 l -0.58006,-15.58984 -38.61327,-0.66229 c -38.29063,-0.65676 -101.61893,-3.75082 -123.38682,-6.02837 -2.14182,-0.2241 -2.8617,0.18363 -3.16057,1.79007 -5.41152,29.08755 -16.58225,46.28899 -35.76297,55.07022 -25.30877,11.58673 -57.7307,3.69827 -71.23956,-17.33305 C 84.92919,454.26069 80.82673,441.0797 79.49378,423.7644 l -0.75841,-9.85197 -7,-1.17798 c -9.84406,-1.65657 -18.74811,-4.07333 -27.68064,-7.51314 -8.88159,-3.42019 -9.84745,-5.1319 -7.42942,-13.16644 2.04676,-6.80084 5.51398,-10.83656 12.51674,-14.56899 5.92846,-3.15983 6.09332,-3.35787 6.09332,-7.31973 0,-3.85207 -1.21796,-12.79777 -4.53525,-33.31069 -0.8005,-4.95 -2.11253,-13.40243 -2.91563,-18.78317 -0.9074,-6.07955 -2.18937,-10.81169 -3.38633,-12.5 -7.28165,-10.27072 -6.5519,-26.72915 1.60783,-36.26196 4.08576,-4.77329 14.45025,-10.26284 28.81378,-15.2612 24.99705,-8.69872 42.05301,-11.82634 66.41559,-12.17889 l 17.5,-0.25325 7,-4.77187 c 10.43932,-7.11643 24.14644,-13.156 46.95938,-20.69101 l 6.95938,-2.29865 2.76551,-12.5 c 7.25968,-32.81353 18.56852,-56.97252 34.78224,-74.30504 18.81035,-20.10833 40.55253,-28.86035 79.27204,-31.90989 l 14.76145,-1.1626 v -4.62758 c 0,-4.21973 1.40745,-14.07427 2.59159,-18.14548 0.26404,-0.90782 1.60987,-1.93414 2.99073,-2.28071 11.90593,-2.9882 61.12144,-6.19586 79.03591,-5.15123 17.72844,1.03378 30.64006,5.83839 43.88177,16.32906 l 6,4.75347 37.5,0.1207 c 45.39244,0.14611 79.41953,2.70241 103.5,7.77549 43.48248,9.16054 67.15459,35.10491 76.0428,83.34205 1.05711,5.73704 1.80741,17.30593 2.1734,33.51176 l 0.55896,24.75 h 8.21154 c 4.51635,0 11.65361,0.29096 15.86059,0.64658 l 7.64904,0.64658 2.60232,5.31895 c 1.59052,3.25091 3.11788,8.9288 3.92832,14.60342 1.48071,10.36764 3.47303,40.5655 3.47303,52.64107 0,12.46387 0.9116,17.15929 3.52426,18.15262 2.61901,0.99575 4.47574,5.67185 4.47574,11.27197 0,7.70201 -6.7514,14.46727 -13.38228,13.40975 -2.0619,-0.32884 -4.81097,0.31117 -8.11772,1.88987 -3.47048,1.65687 -7.66012,2.58881 -13.69596,3.04651 l -8.69595,0.65943 -0.55405,5.35662 c -0.30472,2.94615 -0.8025,7.94413 -1.10617,11.10663 -1.42538,14.84413 -7.92836,38.83664 -13.10851,48.3634 -1.61621,2.97236 -3.9902,5.46233 -6.67394,7 -3.68486,2.11126 -5.3768,2.38097 -14.66542,2.33777 -8.22997,-0.0383 -11.97312,-0.54692 -17.31388,-2.35278 -7.95754,-2.69067 -8.3777,-3.97846 -0.53475,-1.63905 2.94174,0.87748 8.72363,1.87866 12.84863,2.22485 l 7.5,0.62943 -3.19728,-3.29273 c -5.45845,-5.62139 -11.5889,-21.09604 -12.95198,-32.69374 -0.54328,-4.62243 -1.05235,-5.6386 -3.44446,-6.87561 -3.88711,-2.0101 -10.59035,-1.77792 -15.70654,0.54403 -4.20886,1.91017 -4.28576,2.03193 -3.61786,5.72804 1.37726,7.6217 5.51608,20.52747 8.44164,26.32298 2.91094,5.76654 2.9298,8.27037 0.0279,3.70341 -4.93065,-7.75975 -8.33867,-18.55039 -9.63285,-30.5 -0.402,-3.71179 -1.15109,-6.25 -1.84455,-6.25 -0.64221,0 -5.42158,0.93327 -10.62083,2.07393 -27.40409,6.01219 -94.58201,19.5425 -108.95318,21.94427 -6.32628,1.05728 -27.29868,0.87652 -33.30661,-0.28707 -0.78034,-0.15113 -1.1494,1.15334 -1.06629,3.76887 0.28268,8.89638 -1.75578,28.69587 -4.11821,40 -3.3425,15.99375 -5.63296,22.87353 -12.02684,36.12471 -6.40782,13.28007 -12.39251,20.10056 -19.99783,22.79065 -7.10235,2.51218 -34.72182,3.212 -42.48422,1.07646 z m 24.94551,-1.24182 c -0.03,-0.4125 -2.15881,-2.13401 -4.73076,-3.82557 -11.15013,-7.33343 -18.11702,-23.25989 -22.24085,-50.84314 -2.17143,-14.52411 -4.31402,-19.09121 -10.28579,-21.925 -4.3175,-2.04879 -11.84919,-2.14147 -15.61865,-0.19221 -1.55718,0.80525 -4.06889,2.93496 -5.58159,4.7327 -2.68467,3.19056 -2.73519,3.48396 -2.11524,12.28592 0.68218,9.68538 4.02075,23.60313 8.02692,33.46236 3.47258,8.54608 11.28239,19.98328 14.47524,21.19851 8.97198,3.41483 38.23297,7.33961 38.07072,5.10643 z m 19.55449,-3.11566 c 5.83692,-2.65834 11.17664,-9.18395 16.21065,-19.81083 3.39959,-7.1766 4.28875,-10.04974 3.79951,-12.27725 -1.4123,-6.43017 -8.00041,-7.43649 -12.85082,-1.96293 -9.1718,10.35012 -18.51639,12.21937 -25.92731,5.18637 -8.7296,-8.28444 -15.6248,-34.15842 -14.43601,-54.17056 1.00183,-16.86479 7.29681,-34.63098 16.62744,-46.92729 5.47663,-7.21733 6.74396,-11.63873 4.7227,-16.47629 -2.49479,-5.97087 -10.18278,-7.2077 -16.06103,-2.58386 -3.23142,2.54183 -8.24296,14.90281 -11.69503,28.84579 -2.8408,11.47411 -2.75939,12.97875 0.70491,13.0272 0.60226,0.008 1.91062,0.91654 2.90747,2.01805 2.69188,2.97449 0.63358,8.59305 -5.67776,15.49867 l -5.12769,5.61051 0.63772,12.19404 c 1.0501,20.07903 5.47385,40.22112 11.69787,53.2624 7.80947,16.36327 22.23841,24.13547 34.46738,18.56598 z M 143.98128,485.26979 c -8.81847,-2.07836 -14.15845,-5.87158 -24.7803,-17.60252 -3.27847,-3.62079 -5.90974,-5.45183 -9.5,-6.61082 -8.9132,-2.87731 -11.80868,-3.05353 -14.49055,-0.88188 -2.27818,1.84476 -2.33716,2.1358 -0.95582,4.71685 2.42914,4.53889 9.69325,11.03215 16.2535,14.52873 10.0259,5.34375 16.00732,6.83345 27.22725,6.78108 8.03026,-0.0375 9.26055,-0.22095 6.24592,-0.93144 z m 18.00889,-3.33695 c 6.74054,-1.79441 11.41504,-4.54335 12.97821,-7.63212 3.30808,-6.53666 -0.40707,-14.29914 -6.82628,-14.26291 -1.87371,0.0106 -5.43174,0.80273 -7.90674,1.76035 -7.76594,3.00477 -15.31919,0.94405 -23.36436,-6.37441 -2.2746,-2.06914 -5.21904,-4.03238 -6.5432,-4.36276 -3.71498,-0.9269 -8.56033,1.59564 -10.07118,5.24317 -1.66428,4.01792 -0.017,7.93087 6.15979,14.63187 9.62236,10.43905 22.59961,14.45066 35.57376,10.99681 z m 283.25536,-1.82738 c 4.68164,-3.1863 7.06912,-6.79226 8.08014,-12.20399 1.1222,-6.00687 -1.04468,-12.21858 -3.83486,-10.99325 -0.9655,0.42401 -3.38027,0.96438 -5.36615,1.20083 -2.96766,0.35335 -4.25166,-0.13285 -7.20961,-2.72997 -1.9794,-1.73793 -4.85458,-5.71672 -6.3893,-8.84175 -2.64144,-5.37857 -2.78505,-6.37582 -2.69027,-18.68187 0.10571,-13.72598 1.19722,-18.59791 5.5299,-24.6826 2.54513,-3.57431 8.97482,-6.76427 13.6969,-6.79544 2.32485,-0.0153 4.20736,-0.9024 6.25,-2.94504 2.47455,-2.47455 2.92308,-3.7139 2.92308,-8.07692 0,-4.36302 -0.44853,-5.60237 -2.92308,-8.07692 -2.44006,-2.44006 -3.73756,-2.92308 -7.85211,-2.92308 -8.61192,0 -14.82659,6.28542 -21.0895,21.32961 -4.96272,11.92098 -6.29479,18.23525 -6.86898,32.56009 -0.59761,14.90907 0.49627,23.40617 4.45558,34.6103 6.1805,17.48974 14.20387,23.43278 23.28826,17.25 z m 2.97879,-25.24429 c 2.60291,-1.34602 6.01104,-5.04692 6.01104,-6.52742 0,-0.31718 -1.57362,-0.39298 -3.49693,-0.16844 -5.31166,0.62011 -8.90968,-3.75584 -11.06921,-13.46252 -3.11894,-14.01907 0.78609,-27.4473 9.35679,-32.17517 4.7127,-2.59967 4.69323,-3.80564 -0.0757,-4.69268 -7.00668,-1.30328 -15.22773,5.17711 -18.19973,14.34626 -2.64358,8.15589 -1.76885,25.72499 1.65341,33.20893 2.71105,5.92867 7.74425,10.96533 10.95779,10.96533 1.08511,0 3.27327,-0.67243 4.86257,-1.49429 z m -63.21764,-26.064 c 3.44923,-0.78255 8.10647,-2.35904 10.34942,-3.5033 8.32583,-4.24753 16.9873,-14.60851 15.48502,-18.52341 -1.08393,-2.82468 -6.31388,-3.50748 -38.01949,-4.9637 -56.82967,-2.61014 -81.33204,-3.80666 -132.08627,-6.45011 -10.45,-0.54428 -32.275,-1.66472 -48.5,-2.48988 -33.24212,-1.69061 -53.8537,-2.8651 -88.06039,-5.01788 -20.85314,-1.31237 -24.21718,-1.31168 -29.27621,0.006 -6.94379,1.80862 -10.29969,3.89653 -12.21451,7.59938 -1.83436,3.54727 -1.83327,6.25717 0.004,9.80997 2.54148,4.91468 4.2883,5.25354 57.04716,11.0664 59.75793,6.58401 104.41213,9.91381 168,12.52752 63.82149,2.62332 85.49958,2.60972 97.27132,-0.061 z m 305.39755,-2.93477 c 6.91694,-4.57741 14.10625,-25.18787 17.40262,-49.89015 1.56644,-11.7386 1.15348,-13.61679 -2.99393,-13.61679 -3.60601,0 -4.57756,1.96157 -4.57756,9.24216 0,8.12267 -2.36726,20.37968 -5.22161,27.03608 -2.26596,5.28426 -6.24905,8.72176 -10.10604,8.72176 -5.24272,0 -11.83716,-8.47091 -14.60954,-18.76675 -1.2063,-4.47984 -2.86792,-5.28528 -5.49138,-2.66182 -2.24676,2.24676 -1.97022,5.66149 1.44288,17.81662 3.60987,12.85589 6.76859,19.41004 11.11854,23.07029 3.79903,3.19667 7.13587,2.95314 13.03602,-0.9514 z M 553.73536,400.34481 c 29.54312,-5.50961 64.13577,-12.80655 116.25,-24.52166 2.01928,-0.45393 2.25,-1.10566 2.25,-6.35575 0,-11.52368 4.42242,-31.13915 9.0779,-40.26464 4.50099,-8.82266 13.56228,-14.78676 22.52422,-14.82534 6.31544,-0.0272 10.93202,2.80593 14.19073,8.7086 2.6059,4.72019 7.20715,21.85476 7.20715,26.83865 0,4.44622 1.15499,4.89817 6.48847,2.53891 4.40353,-1.94788 5.50452,-3.37638 3.5387,-4.59133 -0.53505,-0.33068 -1.45239,-2.38223 -2.03854,-4.55901 -1.57645,-5.85448 0.16482,-11.18323 4.89699,-14.98611 l 3.81964,-3.06954 0.64458,-10.70106 c 1.22784,-20.38412 -3.18479,-55.97296 -8.46066,-68.23704 -3.82083,-8.88175 -3.02776,-8.6354 -31.88918,-9.90557 -14.025,-0.61723 -27.51785,-1.39978 -29.98411,-1.739 l -4.48411,-0.61676 3.20747,3.6531 c 1.76411,2.00921 3.87299,6.01361 4.6864,8.89866 2.08829,7.40685 3.60122,31.26882 3.41952,53.93293 -0.12953,16.15767 -0.27668,17.92403 -0.90075,10.81261 -0.41026,-4.675 -0.79058,-14.17932 -0.84517,-21.12071 -0.12561,-15.97308 -2.65047,-41.0842 -4.68559,-46.60085 -0.85654,-2.32186 -2.94292,-5.38744 -4.6364,-6.81241 -2.63828,-2.21997 -3.66582,-2.49341 -7.17815,-1.91019 -9.27603,1.54028 -14.53817,6.63147 -17.79108,17.21311 l -2.30803,7.508 -14.24457,-0.60883 -14.24457,-0.60883 2.5692,3.88233 c 4.18963,6.33096 4.96201,14.06685 3.61525,36.20906 -0.6473,10.64213 -1.42005,31.04932 -1.71724,45.34932 -0.29719,14.3 -0.81996,28.25 -1.16172,31 -0.59465,4.78495 -0.6584,4.87097 -1.48227,2 -0.5014,-1.74725 -0.3897,-10.51651 0.2675,-21 0.62061,-9.9 1.18915,-33.75 1.26341,-53 l 0.13501,-35 -3.0196,-4.47225 c -3.61476,-5.35372 -3.3626,-5.2904 -29.9804,-7.52823 -10.45,-0.87856 -28.9,-2.46673 -41,-3.52927 -12.1,-1.06253 -23.33763,-1.94051 -24.97251,-1.95106 -2.92107,-0.0189 -2.93559,0.007 -0.83942,1.47488 3.34514,2.34303 8.07131,10.80007 9.89435,17.70502 1.48414,5.62131 1.60478,11.80162 1.11858,57.30091 -0.33389,31.24636 -0.94223,51.96832 -1.57061,53.5 -0.71553,1.74412 -0.96588,-13.97815 -0.82801,-52 0.1796,-49.53136 0.0373,-55.01816 -1.561,-60.18356 -1.98802,-6.42494 -6.77124,-13.24605 -11.54413,-16.46249 -4.65011,-3.13372 -16.12327,-3.8608 -60.19725,-3.81486 -40.09239,0.0418 -49.46603,0.78946 -75.34856,6.01009 -28.29554,5.70735 -42.61263,12.23363 -55.66991,25.37651 -16.43725,16.545 -23.17495,36.03077 -24.92152,72.07431 l -0.75109,15.5 -0.15446,-13.69878 c -0.4958,-43.97127 12.29318,-72.24889 39.84554,-88.1022 11.54638,-6.64365 35.49768,-13.74251 57.5,-17.04225 21.34396,-3.201 36.81988,-3.94725 71.48235,-3.44686 l 34.16449,0.49319 -0.64575,-5.10155 c -0.35517,-2.80585 -0.83357,-6.00155 -1.06312,-7.10155 -0.22955,-1.1 0.29242,-0.44406 1.15993,1.45763 0.8675,1.9017 1.8852,5.26138 2.26155,7.46594 l 0.68427,4.0083 49.97814,4.21946 c 27.48798,2.3207 50.99064,4.24853 52.22814,4.28407 2.09125,0.06 2.25618,-0.37638 2.33761,-6.1854 0.0482,-3.4375 0.39993,-8.5 0.78167,-11.25 l 0.69408,-5 0.71121,7 c 0.39117,3.85 0.71441,8.90393 0.71832,11.23095 0.008,4.93491 -0.50003,4.7158 14.50711,6.2533 5.5,0.56348 11.86424,1.2914 14.14276,1.61759 l 4.14276,0.59308 0.69237,-5.03416 c 1.0629,-7.72818 5.96385,-15.13163 12.02211,-18.16076 4.95526,-2.47763 5.20283,-2.49731 27.66691,-2.19929 20.64878,0.27394 22.69657,0.14987 23,-1.39351 0.77551,-3.94454 -1.11685,-41.64575 -2.50502,-49.9072 -4.79523,-28.53783 -12.63184,-46.30825 -27.04054,-61.31757 C 652.16743,97.9445 627.9789,91.65645 549.46373,88.20066 c -21.80711,-0.95982 -32.01848,-0.97996 -44.65792,-0.0881 -17.43038,1.22995 -17.18987,1.16808 -49.09155,12.63016 -14.34662,5.15466 -44.13369,8.2984 -69.22978,7.30654 -14.2145,-0.56179 -14.25867,-0.55667 -17.3035,2.00538 -2.22817,1.87489 -2.97065,3.27517 -2.74912,5.1847 0.20254,1.74587 0.80247,2.48859 1.8035,2.23279 0.825,-0.21082 29.0648,-0.60858 62.7551,-0.88391 55.78684,-0.45592 61.64913,-0.35013 65.66889,1.18503 10.43359,3.98463 10.63058,10.79829 1.14432,39.58218 -12.50322,37.9382 -15.50283,44.10239 -24.80656,50.9775 l -4.73824,3.50138 6.61528,1.22094 c 3.63841,0.67151 6.89562,1.52423 7.23825,1.89494 0.83377,0.90209 -11.57198,-0.0405 -32.87704,-2.49789 -36.22222,-4.17804 -61.91716,-5.30418 -109.74712,-4.80992 -40.23923,0.41583 -45.91274,0.67811 -56.25288,2.60051 -19.33231,3.59419 -37.01537,9.22124 -55.95127,17.80464 -11.02194,4.9961 -15.70931,9.00572 -17.47802,14.95086 -0.60517,2.03415 -0.21692,2.17818 7.64588,2.83642 11.84535,0.99166 21.46176,3.28725 27.68403,6.60862 l 5.40062,2.88279 9.09938,-3.4059 c 11.62167,-4.35001 25.90219,-8.00673 41.09938,-10.52408 17.15274,-2.84127 21.56104,-3.29541 87.5,-9.01421 6.325,-0.54856 19.74568,-1.72077 29.82373,-2.60493 10.07805,-0.88415 18.50209,-1.42918 18.72009,-1.21119 0.218,0.218 -10.50268,1.62402 -23.82373,3.12449 -13.32105,1.50046 -29.62009,3.37835 -36.22009,4.17307 -6.6,0.79473 -21.225,2.3612 -32.5,3.48105 -31.97346,3.17565 -49.11724,5.7598 -64,9.64698 -8.81486,2.30233 -25.87512,7.90571 -26.75797,8.78857 -0.21215,0.21214 0.28176,2.35174 1.09757,4.75465 0.81581,2.40291 1.97314,10.99558 2.57184,19.09482 0.59871,8.09924 1.5925,21.36339 2.20843,29.47589 1.26706,16.68851 0.59707,44.38962 -1.59314,65.86946 -0.79184,7.7657 -1.57178,14.73562 -1.73322,15.48871 -0.31574,1.47294 1.22391,1.5961 47.70649,3.81621 12.65,0.60419 36.86133,1.81954 53.80295,2.70079 16.94162,0.88124 31.01559,1.38962 31.27548,1.12973 0.25989,-0.25989 1.16599,-4.47356 2.01354,-9.36371 7.013,-40.46289 28.65571,-76.96591 52.33937,-88.2766 7.00115,-3.34356 8.31848,-3.6273 17.56866,-3.78407 9.40362,-0.15937 9.61235,-0.12099 3.5,0.64364 -15.53132,1.9429 -24.20391,6.2152 -35.54792,17.51166 -8.99038,8.95269 -16.34179,20.27603 -23.02983,35.4727 -6.51269,14.79827 -12.42225,36.01881 -12.42225,44.60689 0,2.94872 0.33599,3.43462 2.375,3.43462 1.30625,0 3.75964,0.27693 5.45199,0.6154 2.66195,0.53239 3.14462,0.29634 3.57846,-1.75 5.57332,-26.28864 14.03306,-48.08693 25.24796,-65.05668 9.24856,-13.99439 22.1478,-22.22635 34.84659,-22.23818 9.50139,-0.009 15.87675,2.89814 22.76046,10.37819 8.93143,9.70515 16.24276,25.92661 20.32373,45.09176 1.89673,8.90748 2.55225,29.91979 1.17276,37.59213 l -0.74304,4.13261 9.24304,-1.87028 c 5.08368,-1.02865 21.39305,-4.13617 36.24305,-6.9056 z m -211,-76.86028 c -5.12081,-2.33894 -9.97286,-7.29796 -13.33507,-13.62907 -2.33654,-4.39974 -2.65532,-6.1405 -2.65532,-14.5 0,-8.39268 0.31532,-10.09887 2.70521,-14.63785 8.69686,-16.51745 29.28649,-20.09577 41.42738,-7.19978 5.86631,6.23117 7.78081,11.35905 7.77974,20.83763 -8.2e-4,7.23966 -0.4111,9.34723 -2.767,14.21391 -6.46893,13.36312 -21.62524,20.18137 -33.15494,14.91516 z m 13.5,-2.20478 c 9.20002,-2.09928 15.94784,-9.176 18.66922,-19.57919 1.87721,-7.17612 1.21798,-12.98463 -2.28894,-20.16791 -6.9744,-14.28579 -25.67754,-17.17247 -36.337,-5.60832 -3.70936,4.02418 -7.61326,11.19448 -6.63014,12.1776 0.24166,0.24167 1.1471,-0.92917 2.01207,-2.60185 2.035,-3.93524 6.97444,-7.62453 12.32479,-9.20542 5.06542,-1.49671 10.85487,-0.17437 15.89763,3.63109 10.90448,8.22896 9.46819,28.89895 -2.54445,36.6178 -4.09426,2.63081 -5.29387,2.9169 -10.8504,2.58765 -6.59343,-0.39069 -7.08152,0.41026 -1.25278,2.05579 4.60369,1.29968 5.67126,1.30868 11,0.0928 z m -2.70226,-5.27533 c 4.13148,-1.72625 9.14293,-7.42414 10.71243,-12.17977 2.50515,-7.59069 -0.52917,-18.56637 -6.26122,-22.64795 -3.15802,-2.24871 -10.9049,-3.50088 -15.11765,-2.44355 -6.95316,1.74513 -12.57258,10.46062 -12.60934,19.55659 -0.0556,13.76629 11.56267,22.60872 23.27578,17.71468 z m 163.78559,-87.0289 c 0.22917,-0.20896 16.84167,-0.90393 36.91667,-1.54438 20.075,-0.64044 45.275,-1.59544 56,-2.12221 88.81164,-4.36209 92.8779,-4.49094 76,-2.40832 -17.27859,2.13207 -56.28732,4.4078 -93.5,5.45471 -35.19389,0.99011 -76.19209,1.32727 -75.41667,0.6202 z m 81.91667,-11.83386 c 0,-1.95968 0.12035,-2.00751 1.25,-0.49674 1.11775,1.49485 2.46672,1.56969 12.75,0.7074 6.325,-0.53037 16.1125,-0.97164 21.75,-0.98059 15.72289,-0.025 15.55351,0.37553 12.72141,-30.07889 -1.33498,-14.3555 -3.4052,-30.25429 -6.34983,-48.76538 -1.0117,-6.35992 -3.76325,-10.40231 -7.72335,-11.34662 -1.59403,-0.3801 -10.77323,-1.13092 -20.39823,-1.66848 -22.15031,-1.2371 -22.44805,-1.11804 -21.72263,8.68663 0.27087,3.66106 1.41065,14.98147 2.53284,25.15647 2.0665,18.73724 3.54585,38.33094 2.75579,36.5 -0.23733,-0.55 -1.38985,-9.1 -2.56115,-19 -1.17131,-9.9 -2.77657,-22.85297 -3.56725,-28.78438 -2.05586,-15.42236 -1.91148,-21.24174 0.58903,-23.74225 1.88573,-1.88573 2.87643,-1.98578 14.25,-1.43905 16.01709,0.76995 29.1308,2.23856 32.11012,3.59603 1.31599,0.59961 2.87744,2.15406 3.46988,3.45434 2.37568,5.21404 6.97565,38.97414 9.23231,67.75767 1.71936,21.93037 3.10727,20.97009 -31.83894,22.029 l -19.25,0.5833 z m -69,0.26633 c -20.29354,-0.6061 -23.43584,-1.38846 -25.85581,-6.43755 -1.25249,-2.61325 -0.95431,-4.46984 3.37132,-20.9909 6.09931,-23.29533 15.05965,-54.09341 17.09191,-58.74755 1.18408,-2.7117 2.75361,-4.14394 6.2374,-5.69182 9.21313,-4.09349 12.33986,-4.61534 27.15518,-4.53218 25.24146,0.14168 25.87353,0.83648 28.97668,31.85266 3.68851,36.86678 4.02621,40.96098 4.02476,48.79447 -0.002,9.22355 -1.49285,12.75659 -6.35852,15.0655 -3.69167,1.75181 -14.46551,1.88734 -54.64292,0.68737 z m 51.28212,-2.41451 c 5.81285,-2.46032 7.21857,-4.99242 7.21212,-12.99115 -0.003,-3.93078 -0.56334,-12.99687 -1.24484,-20.14687 -0.68149,-7.15 -1.70597,-19.975 -2.27661,-28.5 -1.61772,-24.16777 -2.54539,-26.72726 -10.47279,-28.89503 -8.07249,-2.20745 -31.06793,-1.05774 -41.69082,2.08443 -3.20817,0.94895 -4.1008,1.95 -6.82594,7.65504 -1.80416,3.77697 -5.61334,16.34721 -8.97261,29.60945 -3.21061,12.67536 -7.00144,27.18424 -8.42405,32.24195 -3.12786,11.12022 -3.20275,13.43656 -0.51313,15.87063 2.29828,2.07991 2.44213,2.09294 36.92655,3.3455 32.62827,1.18513 32.83858,1.18354 36.28212,-0.27395 z m -89.19617,-1.51003 c -0.0754,-1.20296 13.27832,-55.34548 20.30966,-82.34555 5.56663,-21.37561 8.47859,-23.33287 39.07479,-26.26395 31.18371,-2.98736 62.01733,-0.8782 88.93517,6.08359 7.78061,2.0123 22.00572,6.92722 24.31739,8.4019 2.06149,1.31508 3.51158,1.61137 -17.22296,-3.51902 -37.38023,-9.24907 -70.75603,-11.42461 -105.4092,-6.87093 -19.97198,2.62447 -22.24604,4.84416 -28.05676,27.38597 -3.17178,12.30439 -19.4616,71.12141 -21.04879,76 -0.44734,1.375 -0.85202,1.88259 -0.8993,1.12799 z m 168.1625,-1.53926 c -2.36634,-3.00833 -2.86854,-5.045 -3.72052,-15.08873 -0.96876,-11.42053 -2.50752,-25.21832 -4.23783,-38 -0.89347,-6.6 -1.66176,-15.89997 -1.7073,-20.6666 -0.0751,-7.85558 0.14407,-8.90836 2.34151,-11.25 1.88917,-2.01313 3.38798,-2.5834 6.78984,-2.5834 8.57901,0 15.33676,5.48323 20.33523,16.5 2.96201,6.52835 12.40861,39.37535 11.56634,40.21761 -0.28511,0.28511 -0.81336,-0.77221 -1.17389,-2.34961 -2.05522,-8.99215 -9.91755,-33.64108 -12.17255,-38.16179 -4.85878,-9.74062 -13.62021,-15.58987 -20.69278,-13.81477 -5.60259,1.40616 -6.45792,4.6759 -4.60621,17.60856 0.51188,3.575 1.40556,11.45 1.98597,17.5 4.24687,44.26806 4.82563,47.77772 8.17428,49.56986 1.35975,0.72772 5.34207,0.87435 11.71475,0.43135 17.54626,-1.21974 20.65462,-3.01245 20.49363,-11.81953 -0.0521,-2.84993 -0.8663,-7.80255 -1.80933,-11.00583 -0.94304,-3.20329 -1.51429,-6.02449 -1.26943,-6.26934 1.11861,-1.11861 4.95178,16.65021 4.31924,20.02197 -1.51812,8.09226 -5.37706,9.87484 -24.15009,11.15576 l -10.07068,0.68714 z m -61.99627,-2.08873 c 0.0111,-2.2 0.21589,-2.98225 0.45508,-1.73834 0.23919,1.24391 0.23011,3.04391 -0.0202,4 -0.25029,0.95609 -0.446,-0.0617 -0.4349,-2.26166 z m -0.97982,-9.5 c 0,-2.475 0.19502,-3.4875 0.43337,-2.25 0.23836,1.2375 0.23836,3.2625 0,4.5 -0.23835,1.2375 -0.43337,0.225 -0.43337,-2.25 z m 93.53309,201.5688 c 3.29477,-3.75254 6.06118,-11.9006 6.76661,-19.93014 0.42917,-4.88503 0.38906,-4.99059 -0.81262,-2.13866 -2.73974,6.50214 -4.89894,9.49691 -7.27763,10.09392 -4.2095,1.05652 -7.41121,-0.37802 -9.19572,-4.12017 -1.74008,-3.64899 -2.10361,-3.86474 -4.78091,-2.83737 -7.21419,2.76835 0.89892,22.36362 9.2593,22.36362 2.19738,0 3.85498,-0.9415 6.04097,-3.4312 z m -437.31469,-10.8188 c 1.50574,-6.40598 3.5076,-36.27562 3.49581,-52.16061 -0.0162,-21.81859 -2.24546,-50.88522 -5.56722,-72.58939 -1.37134,-8.96022 -5.15074,-11.96341 -19.58712,-15.56431 -6.62058,-1.65139 -39.5859,-3.2163 -44.06597,-2.09187 -2.92977,0.73532 -5.41889,5.40409 -3.76308,7.05831 0.75602,0.75529 8.33784,0.98601 24.29787,0.73938 26.06275,-0.40274 30.2611,0.21669 35.23169,5.19809 2.48266,2.48805 3.38927,4.54321 4.26154,9.6604 1.04973,6.1583 2.70572,61.85315 2.70572,91 0,16.08424 -1.13419,19.05623 -8.71249,22.82993 -5.8777,2.92687 -10.81857,3.08437 -42.18188,1.34466 -19.8406,-1.10056 -24.03637,-1.10056 -24.73135,0 -1.65984,2.6285 2.24799,3.52135 18.85354,4.3076 9.2247,0.43677 22.39718,1.10576 29.27218,1.48664 6.875,0.38088 16.42893,0.76871 21.23095,0.86184 8.29637,0.1609 8.75727,0.0573 9.25981,-2.08067 z m 436.8483,-3.42239 c 0.36982,-0.36982 -0.77418,-1.88005 -2.54221,-3.35606 -3.15958,-2.63774 -3.22143,-2.85389 -3.6141,-12.63025 -0.49116,-12.22843 1.54259,-21.69467 5.39216,-25.09821 2.17729,-1.92501 2.31279,-2.34895 0.92142,-2.88287 -2.82369,-1.08355 -6.36735,1.73747 -8.22349,6.54653 -2.58194,6.68953 -2.58179,31.44823 2.1e-4,35.3879 1.70846,2.60678 6.3279,3.77107 8.06601,2.03296 z m -450.5394,-3.7326 c 4.30386,-2.23929 6.9983,-5.75158 8.12792,-10.59501 0.75306,-3.22891 0.60676,-18.34077 -0.51796,-53.5 -1.7082,-53.39888 -1.72876,-53.55272 -7.74241,-57.93547 -2.74382,-1.99969 -3.97198,-2.06208 -39.10753,-1.9865 -34.26377,0.0737 -36.49055,0.18922 -40.16722,2.08372 -7.09285,3.65477 -8.29052,7.34583 -9.40694,28.99082 -1.86891,36.23441 -2.91007,74.87633 -2.11117,78.35471 2.43258,10.59129 6.02914,11.77282 42.62565,14.00326 10.45,0.63689 19.675,1.29286 20.5,1.45772 0.825,0.16486 6.80985,0.35194 13.29966,0.41574 8.37993,0.0824 12.58226,-0.29119 14.5,-1.28899 z m 510.00589,-37.88803 c 5.04554,-5.37073 4.93651,-15.13658 -0.1951,-17.4747 -4.93397,-2.24807 -13.01045,4.73356 -13.01045,11.24674 0,7.33544 8.43009,11.31121 13.20555,6.22796 z M 76.44396,308.33505 c 4.32629,-3.56609 8.51904,-11.63289 9.39597,-18.07772 0.82872,-6.09053 -1.61718,-14.29294 -5.74947,-19.28102 -5.16695,-6.23701 -14.94786,-9.62386 -17.81523,-6.16889 -1.99103,2.39905 -0.76455,4.66354 3.27633,6.04924 4.71305,1.61618 7.3591,3.94564 9.70673,8.54531 4.32455,8.47305 3.30491,17.87395 -2.6995,24.88874 -3.40541,3.97846 -3.87837,7.06475 -1.08265,7.06475 0.71694,0 2.95246,-1.35918 4.96782,-3.02041 z m -13.27727,0.0401 c 12.52523,-3.59218 17.0559,-22.23246 7.68215,-31.60621 -10.92886,-10.92887 -27.61347,-2.42218 -27.61347,14.0788 0,9.33091 3.15926,14.37532 10.6838,17.05891 4.68386,1.67047 5.00056,1.68652 9.24752,0.46851 z m 406.77472,-100.1943 c 9.12183,-4.25344 12.23987,-10.05642 23.8168,-44.32539 6.17086,-18.26642 7.86299,-24.54356 8.2219,-30.5 0.43562,-7.2297 0.34803,-7.59839 -2.43027,-10.23 -4.70591,-4.45745 -12.13573,-4.93786 -67.0431,-4.33497 -59.20845,0.65011 -122.33954,3.04941 -148.27138,5.63505 -12.61052,1.25738 -18.72499,4.14047 -23.51145,11.08607 -2.57047,3.73 -16.69939,37.64794 -21.96096,52.71958 -2.17573,6.23231 -1.96481,13.89488 0.49345,17.9269 l 2.01357,3.30262 11.23269,-0.61856 c 6.17799,-0.34021 15.2827,-1.02265 20.2327,-1.51653 47.19786,-4.70912 133.7617,-3.33576 181.5,2.87955 7.52311,0.97947 9.92926,0.66935 15.70605,-2.02432 z m -47.3752,-104.31352 c 8.70697,-0.80544 17.98667,-1.75041 20.62155,-2.09994 l 4.7907,-0.63551 0.63683,-8.13821 c 0.61723,-7.88784 -0.5888,-23.54912 -1.98777,-25.8127 -1.17994,-1.90918 -87.04507,1.60587 -90.43702,3.70222 -1.02894,0.63592 -1.32156,27.50398 -0.33943,31.16652 0.41273,1.53916 1.52821,2.31239 3.73634,2.58997 8.31112,1.04474 48.68863,0.54956 62.9788,-0.77235 z m -54.49168,-15.13715 0.33916,-11.62789 -3.08916,0.45339 c -1.69905,0.24937 -3.08917,0.13381 -3.08917,-0.25678 0,-1.11734 4.02962,-1.91491 9.75,-1.92979 4.27986,-0.0111 5.25,0.30049 5.25,1.68635 0,1.32222 -0.26667,1.43333 -1.2,0.5 -0.66,-0.66 -2.26146,-1.2 -3.5588,-1.2 h -2.3588 l 0.3088,12.00189 c 0.26087,10.13913 0.076,12.0018 -1.1912,12.00131 -1.26675,-4.9e-4 -1.44726,-1.80869 -1.16083,-11.62848 z m 9.52318,9.37528 c 0.77464,-1.2375 2.866,-6.75 4.64746,-12.25 1.78146,-5.5 3.56215,-10.35662 3.95709,-10.79249 0.39494,-0.43587 2.37997,4.27139 4.41117,10.46058 2.03121,6.18919 4.31874,11.94581 5.08341,12.79249 1.22352,1.35473 0.97192,1.56992 -2.09722,1.79367 -2.27213,0.16564 -3.25727,-0.11835 -2.82678,-0.81489 0.36341,-0.58802 0.37076,-2.61493 0.0163,-4.50425 -0.61887,-3.29901 -0.81977,-3.43511 -5.0705,-3.43511 -4.14607,0 -4.48186,0.20562 -5.30752,3.25 -0.54326,2.00311 -0.50725,3.72957 0.0938,4.5 0.72621,0.93077 0.29966,1.25 -1.67022,1.25 -2.49413,0 -2.56491,-0.12874 -1.23704,-2.25 z m 11.08141,-10 c -0.38006,-1.2375 -1.25503,-3.6 -1.94438,-5.25 l -1.25336,-3 -1.11503,2.7941 c -0.61326,1.53676 -1.3924,3.89926 -1.73142,5.25 -0.57079,2.27424 -0.34449,2.4559 3.05941,2.4559 3.35001,0 3.61455,-0.19941 2.98478,-2.25 z m 13.18657,9 c 1.08842,-1.2375 3.21254,-4.18409 4.72025,-6.54798 l 2.7413,-4.29798 -3.16298,-5.52832 c -1.73965,-3.04057 -3.82305,-5.78161 -4.62979,-6.09118 -2.16916,-0.83239 0.42373,-2.24988 4.15089,-2.26923 2.21706,-0.0115 2.6653,0.26939 1.80411,1.13058 -0.8612,0.8612 -0.65738,2.10347 0.82032,5 1.08142,2.11976 2.32421,3.85411 2.76175,3.85411 1.09373,0 5.16382,-7.39812 5.16382,-9.38616 0,-1.08533 0.88131,-1.61384 2.69113,-1.61384 2.31394,0 2.47361,0.1752 1.13918,1.25 -1.98425,1.59819 -7.83031,10.28569 -7.83031,11.63617 0,1.26754 5.63459,10.97726 7.75508,13.36383 1.44974,1.63164 1.30371,1.75 -2.15911,1.75 -2.13342,0 -3.46001,-0.41098 -3.11717,-0.9657 0.64741,-1.04753 -2.83376,-8.51761 -4.42869,-9.50333 -1.10883,-0.6853 -6.05011,6.6237 -6.05011,8.94916 0,0.89382 -0.89562,1.51987 -2.17431,1.51987 h -2.17432 z M 427.214,97.8812 c 0.86935,-1.04751 1.1219,-5.24498 0.87245,-14.50041 l -0.35109,-13.02615 3.5,0.0308 c 2.86252,0.0252 3.18126,0.21647 1.75,1.0501 -1.51779,0.88403 -1.75,2.66475 -1.75,13.4199 0,10.75515 0.23221,12.53587 1.75,13.4199 1.3834,0.80576 0.83404,1.02565 -2.62244,1.04969 -3.74101,0.026 -4.19576,-0.18249 -3.14892,-1.44385 z m 32.79632,-0.90011 c 3.69877,-1.85591 10.10004,-4.56901 14.22504,-6.02912 4.125,-1.4601 8.10468,-2.8687 8.84373,-3.13021 0.85617,-0.30295 -0.59517,-2.11534 -4,-4.99508 -7.92481,-6.70264 -32.93849,-18.66963 -30.38388,-14.53619 2.90167,4.695 4.49216,22.2587 2.60996,28.82157 -1.21945,4.25198 0.007,4.23353 8.70515,-0.13097 z"
       id="path827"
       inkscape:connector-curvature="0" />
  </g>
</svg>
